<?xml version="1.0" encoding="UTF-8" standalone="no"?>
<svg width="237px" height="73px" viewBox="0 0 237 73" version="1.1" xmlns="http://www.w3.org/2000/svg" xmlns:xlink="http://www.w3.org/1999/xlink" xmlns:sketch="http://www.bohemiancoding.com/sketch/ns">
    <title>Untitled</title>
    <description>Created with Sketch (http://www.bohemiancoding.com/sketch)</description>
    <defs></defs>
    <g id="Page-1" stroke="none" stroke-width="1" fill="none" fill-rule="evenodd" sketch:type="MSPage">
        <g id="Group" sketch:type="MSLayerGroup" transform="translate(-32.000000, 0.000000)">
            <g id="Background"></g>
            <g id="Guides"></g>
            <g id="Foreground" transform="translate(32.000000, 0.000000)" fill="#000000" sketch:type="MSShapeGroup">
                <g id="Group">
                    <path d="M27.282,49.116 C24.523,44.086 19.817,42.084 14.354,42.084 C6.403,42.084 0.074,47.709 0.074,57.23 C0.074,66.912 6.024,72.375 14.624,72.375 C20.141,72.375 24.847,69.346 27.443,64.748 L21.385,61.665 C20.032,64.911 17.977,65.885 15.381,65.885 C10.891,65.885 8.836,62.153 8.836,57.231 C8.836,52.308 10.567,48.576 15.381,48.576 C16.679,48.576 19.276,49.279 20.79,52.525 L27.282,49.116 L27.282,49.116 Z" id="Shape"></path>
                    <path d="M42.746,48.575 C47.56,48.575 49.616,52.307 49.616,56.905 C49.616,62.152 47.56,65.884 42.746,65.884 C37.932,65.884 35.877,62.152 35.877,57.23 C35.877,52.308 37.932,48.575 42.746,48.575 L42.746,48.575 Z M42.746,42.084 C33.767,42.084 27.439,47.547 27.439,57.23 C27.439,66.912 33.767,72.375 42.746,72.375 C51.725,72.375 58.054,66.912 58.054,57.23 C58.054,47.548 51.725,42.084 42.746,42.084 L42.746,42.084 Z" id="Shape"></path>
                    <path d="M59.783,71.617 L68.221,71.617 L68.221,53.714 C68.221,51.118 69.303,48.9 72.71,48.9 C75.956,48.9 76.821,50.793 76.821,53.606 L76.821,71.618 L85.259,71.618 L85.259,53.93 C85.259,51.009 86.719,48.9 89.532,48.9 C92.723,48.9 93.859,50.739 93.859,54.796 L93.859,71.617 L102.297,71.617 L102.297,49.657 C102.297,43.058 96.239,42.084 93.426,42.084 C90.072,42.084 86.935,43.112 84.177,45.924 C82.283,43.382 79.85,42.084 76.55,42.084 C73.954,42.084 70.384,42.841 68.22,45.384 L68.22,42.842 L59.782,42.842 L59.782,71.617 L59.783,71.617 Z" id="Shape"></path>
                    <path d="M104.997,71.617 L113.435,71.617 L113.435,53.714 C113.435,51.118 114.517,48.9 117.924,48.9 C121.17,48.9 122.035,50.793 122.035,53.606 L122.035,71.618 L130.473,71.618 L130.473,53.93 C130.473,51.009 131.933,48.9 134.745,48.9 C137.936,48.9 139.073,50.739 139.073,54.796 L139.073,71.617 L147.511,71.617 L147.511,49.657 C147.511,43.058 141.452,42.084 138.64,42.084 C135.286,42.084 132.15,43.112 129.391,45.924 C127.498,43.382 125.064,42.084 121.764,42.084 C119.168,42.084 115.598,42.841 113.434,45.384 L113.434,42.842 L104.996,42.842 L104.996,71.617 L104.997,71.617 Z" id="Shape"></path>
                    <path d="M164.544,48.575 C169.357,48.575 171.413,52.307 171.413,56.905 C171.413,62.152 169.357,65.884 164.544,65.884 C159.73,65.884 157.674,62.152 157.674,57.23 C157.674,52.308 159.73,48.575 164.544,48.575 L164.544,48.575 Z M164.544,42.084 C155.565,42.084 149.236,47.547 149.236,57.23 C149.236,66.912 155.564,72.375 164.544,72.375 C173.523,72.375 179.852,66.912 179.852,57.23 C179.852,47.548 173.523,42.084 164.544,42.084 L164.544,42.084 Z" id="Shape"></path>
                    <path d="M182.122,71.617 L190.56,71.617 L190.56,53.714 C190.56,51.118 191.642,48.9 195.05,48.9 C198.295,48.9 199.16,50.793 199.16,53.606 L199.16,71.618 L207.598,71.618 L207.598,50.36 C207.598,46.033 205.704,42.084 198.889,42.084 C196.293,42.084 192.723,42.841 190.559,45.384 L190.559,42.842 L182.121,42.842 L182.121,71.617 L182.122,71.617 Z" id="Shape"></path>
                    <path d="M235.774,46.25 C231.879,43.654 227.499,42.085 223.063,42.085 C217.22,42.085 210.892,44.898 210.892,52.146 C210.892,62.369 227.93,58.799 227.93,63.289 C227.93,65.886 224.74,66.21 223.332,66.21 C219.492,66.21 216.842,64.642 214.245,62.153 L208.998,66.696 C213.218,70.591 216.787,72.376 223.062,72.376 C229.335,72.376 236.043,69.671 236.043,62.099 C236.043,51.335 219.005,55.392 219.005,50.47 C219.005,49.01 220.519,48.253 222.628,48.253 C225.279,48.253 228.903,49.335 230.579,51.336 L235.774,46.25 L235.774,46.25 Z" id="Shape"></path>
                    <path d="M27.282,16.011 C24.523,10.981 19.817,8.979 14.354,8.979 C6.403,8.979 0.074,14.604 0.074,24.124 C0.074,33.806 6.024,39.27 14.624,39.27 C20.141,39.27 24.847,36.241 27.443,31.643 L21.385,28.56 C20.032,31.806 17.977,32.779 15.381,32.779 C10.891,32.779 8.836,29.047 8.836,24.124 C8.836,19.202 10.567,15.47 15.381,15.47 C16.679,15.47 19.276,16.173 20.79,19.419 L27.282,16.011 L27.282,16.011 Z" id="Shape"></path>
                    <path d="M29.34,38.512 L37.778,38.512 L37.778,21.852 C37.778,18.661 39.779,17.795 44.81,17.2 L45.729,17.092 L45.675,9.628 C42.7,9.845 39.617,10.926 37.778,12.657 L37.778,9.736 L29.34,9.736 L29.34,38.512 L29.34,38.512 Z" id="Shape"></path>
                    <path d="M74.386,25.855 C74.332,16.984 70.762,8.979 60.268,8.979 C51.505,8.979 46.15,14.821 46.15,24.99 C46.15,33.103 51.343,39.27 60.268,39.27 C66.705,39.27 71.302,36.728 74.223,31.319 L67.894,28.019 C65.46,31.481 63.999,33.103 60.862,33.103 C58.158,33.103 54.642,31.372 54.588,25.855 L74.386,25.855 L74.386,25.855 Z M54.481,20.663 C54.859,16.876 57.78,15.146 60.214,15.146 C62.648,15.146 65.677,16.444 65.947,20.663 L54.481,20.663 L54.481,20.663 Z" id="Shape"></path>
                    <path d="M93.742,26.504 C93.742,30.885 91.254,33.103 87.954,33.103 C85.898,33.103 84.005,32.129 84.005,29.858 C84.005,27.532 85.952,26.721 88.062,26.126 L93.742,24.503 L93.742,26.504 L93.742,26.504 Z M101.855,17.309 C101.801,10.818 96.879,8.979 89.036,8.979 C85.141,8.979 77.461,9.736 77.19,18.012 L85.304,18.012 C85.737,15.145 87.034,14.172 89.739,14.172 C92.011,14.172 93.742,15.091 93.742,17.255 L93.742,19.635 L90.659,20.068 C81.464,21.366 75.892,23.8 75.892,30.724 C75.892,36.241 80.003,39.27 85.52,39.27 C88.549,39.27 92.768,37.81 94.174,35.538 L94.282,35.538 C94.336,36.512 94.499,37.539 94.823,38.513 L102.612,38.513 C101.909,36.728 101.855,34.511 101.855,32.509 L101.855,17.309 L101.855,17.309 Z" id="Shape"></path>
                    <path d="M121.699,10.277 L116.668,10.277 L116.668,1.947 L108.23,1.947 L108.23,10.277 L104.12,10.277 L104.12,15.469 L108.23,15.469 L108.23,30.615 C108.23,34.78 109.258,39.269 116.453,39.269 C118.292,39.269 120.78,39.053 121.862,38.944 L121.862,32.291 C121.428,32.345 120.239,32.453 119.32,32.453 C117.804,32.453 116.669,31.858 116.669,29.586 L116.669,15.47 L121.7,15.47 L121.7,10.277 L121.699,10.277 Z" id="Shape"></path>
                    <path d="M124.876,9.736 L124.876,38.512 L133.314,38.512 L133.314,9.736 L124.876,9.736 L124.876,9.736 Z M133.315,6.491 L133.315,0 L124.877,0 L124.877,6.491 L133.315,6.491 L133.315,6.491 Z" id="Shape"></path>
                    <path d="M144.67,38.512 L153.162,38.512 L163.007,9.736 L154.028,9.736 L149.051,30.074 L148.944,30.074 L143.966,9.736 L134.934,9.736 L144.67,38.512 Z" id="Shape"></path>
                    <path d="M190.256,25.855 C190.202,16.984 186.632,8.979 176.139,8.979 C167.375,8.979 162.022,14.821 162.022,24.99 C162.022,33.103 167.213,39.27 176.139,39.27 C182.576,39.27 187.173,36.728 190.094,31.319 L183.765,28.019 C181.331,31.481 179.87,33.103 176.734,33.103 C174.03,33.103 170.513,31.372 170.46,25.855 L190.256,25.855 L190.256,25.855 Z M170.351,20.663 C170.73,16.876 173.65,15.146 176.084,15.146 C178.518,15.146 181.548,16.444 181.818,20.663 L170.351,20.663 L170.351,20.663 Z" id="Shape"></path>
                </g>
            </g>
        </g>
    </g>
</svg>